<svg width="389" height="456" viewBox="0 0 389 456" fill="none" xmlns="http://www.w3.org/2000/svg">
<g opacity="0.1">
<g clip-path="url(#clip0_1_869)">
<path d="M203.917 62.4963C203.868 42.1434 197.848 22.2524 186.603 5.28783C175.453 -11.6053 159.53 -24.7999 140.859 -32.6172C128.003 -37.7674 114.239 -40.2706 100.392 -39.9768C86.5457 -39.6831 72.9006 -36.5986 60.2739 -30.9078C47.6472 -25.2171 36.2985 -17.0371 26.9072 -6.85765C17.5159 3.32184 10.2751 15.2916 5.61817 28.335C0.319699 42.6393 -1.64102 57.965 -0.11437 73.1424C1.29119 88.2183 6.00481 102.799 13.6905 115.844C21.5508 128.832 32.1266 139.967 44.6931 148.484C58.7044 157.773 74.7648 163.515 91.4894 165.214C108.215 166.867 125.091 164.376 140.625 157.961C153.129 152.539 164.366 144.57 173.617 134.563C183.178 125.148 190.779 113.932 195.98 101.562C201.181 89.1925 203.879 75.9148 203.917 62.4963Z" fill="#5152FB"/>
<path d="M348.993 62.5098C310.269 62.5098 262.771 97.607 243.702 140.66C243.702 140.66 199.596 240.336 101.792 240.336C68.4725 240.299 36.2826 228.254 11.1242 206.408C-9.94218 188.206 -27.096 165.918 -39.2988 140.894C-58.2513 97.9579 -105.867 62.8607 -144.59 62.8607C-183.314 62.8607 -196.885 95.8521 -173.487 136.682L59.7923 543.108C83.1905 583.82 121.329 583.82 144.494 543.108L377.305 136.916C400.586 95.8521 388.068 62.5098 348.993 62.5098Z" fill="#5152FB"/>
</g>
</g>
<defs>
<clipPath id="clip0_1_869">
<path d="M-146 30C-146 13.4315 -132.569 0 -116 0H389V456H-116C-132.569 456 -146 442.569 -146 426V30Z" fill="white"/>
</clipPath>
</defs>
</svg>
