<svg width="51" height="51" viewBox="0 0 51 51" fill="none" xmlns="http://www.w3.org/2000/svg">
<g opacity="0.6">
<path d="M29.1747 16.3792C28.9667 16.3792 28.7587 16.3446 28.5507 16.2926C27.4067 15.946 26.7481 14.733 27.0947 13.5893L30.5613 2.04813C30.908 0.904415 32.1213 0.245913 33.2653 0.592493C34.4092 0.939074 35.0679 2.15211 34.7212 3.29582L31.2546 14.837C30.96 15.7727 30.0933 16.3792 29.1747 16.3792Z" fill="#8D95FF"/>
<path d="M18.9147 50.4994C18.7067 50.4994 18.4986 50.4647 18.2907 50.4127C17.1467 50.0661 16.488 48.8531 16.8347 47.7094L20.3013 36.1682C20.648 35.0245 21.8613 34.366 23.0053 34.7126C24.1492 35.0592 24.8079 36.2722 24.4612 37.4159L20.9946 48.9571C20.7 49.8928 19.8333 50.4994 18.9147 50.4994Z" fill="#8D95FF"/>
<path d="M36.1583 22.0807C35.3783 22.0807 34.633 21.6648 34.2516 20.937C33.6796 19.8799 34.0783 18.5629 35.1356 18.0084L45.7607 12.3071C46.818 11.7353 48.1353 12.1338 48.69 13.1909C49.2447 14.248 48.8633 15.565 47.806 16.1195L37.1809 21.8208C36.8516 21.994 36.5049 22.0807 36.1583 22.0807Z" fill="#8D95FF"/>
<path d="M4.76959 38.9586C3.98961 38.9586 3.24429 38.5427 2.86297 37.8149C2.29098 36.7578 2.68964 35.4408 3.74695 34.8863L14.3721 29.1851C15.4294 28.6132 16.7467 29.0118 17.3013 30.0688C17.8733 31.1259 17.4747 32.4429 16.4174 32.9974L5.79224 38.6987C5.48025 38.872 5.11625 38.9586 4.76959 38.9586Z" fill="#8D95FF"/>
<path d="M48.6049 34.5228C48.3969 34.5228 48.1889 34.4882 47.9809 34.4362L36.4372 30.9704C35.2932 30.6238 34.6345 29.4108 34.9812 28.267C35.3278 27.1233 36.5412 26.4648 37.6851 26.8114L49.2289 30.2772C50.3728 30.6238 51.0315 31.8368 50.6849 32.9805C50.4075 33.9163 49.5409 34.5228 48.6049 34.5228Z" fill="#8D95FF"/>
<path d="M14.4936 24.264C14.2856 24.264 14.0776 24.2294 13.8696 24.1774L2.32583 20.7116C1.18186 20.365 0.523199 19.152 0.869858 18.0082C1.21652 16.8645 2.42982 16.206 3.57379 16.5526L15.1175 20.0184C16.2615 20.365 16.9202 21.578 16.5735 22.7217C16.2789 23.6575 15.4122 24.264 14.4936 24.264Z" fill="#8D95FF"/>
<path d="M37.06 48.6635C36.28 48.6635 35.5347 48.2476 35.1534 47.5198L29.4509 36.8971C28.8789 35.84 29.2775 34.523 30.3348 33.9685C31.3921 33.3966 32.7095 33.7952 33.2641 34.8523L38.9666 45.475C39.5386 46.532 39.14 47.849 38.0827 48.4036C37.7707 48.5769 37.4067 48.6635 37.06 48.6635Z" fill="#8D95FF"/>
<path d="M20.1948 17.2806C19.4148 17.2806 18.6695 16.8647 18.2881 16.1369L12.5856 5.51417C12.0136 4.4571 12.4123 3.14009 13.4696 2.58557C14.5269 2.01371 15.8442 2.41228 16.3989 3.46935L22.1014 14.092C22.6734 15.1491 22.2748 16.4661 21.2174 17.0206C20.8881 17.1939 20.5414 17.2806 20.1948 17.2806Z" fill="#8D95FF"/>
</g>
</svg>
