<svg width="139" height="26" viewBox="0 0 139 26" fill="none" xmlns="http://www.w3.org/2000/svg">
<path d="M14.5004 3.84211C14.5004 3.08671 14.2756 2.33901 13.857 1.70694C13.4385 1.07487 12.8494 0.581549 12.1518 0.288638C11.462 0.00343499 10.6947 -0.0659386 9.95057 0.0805168C9.21423 0.23468 8.53215 0.604673 8.00509 1.14425C7.60204 1.54507 7.29976 2.03069 7.10598 2.56255C6.91221 3.09442 6.84245 3.66482 6.89671 4.23523C6.95097 4.79792 7.12924 5.3452 7.42377 5.83082C7.71831 6.31643 8.10585 6.73268 8.57866 7.04871C9.09797 7.39558 9.69479 7.61141 10.3149 7.67307C10.9349 7.73474 11.5628 7.64224 12.1441 7.40329C12.6091 7.20288 13.0277 6.91767 13.3765 6.54768C14.0973 5.83082 14.5004 4.85188 14.5004 3.84211Z" fill="#5152FB"/>
<path d="M2.33887 9.93927L9.12092 21.779C9.97352 23.2975 11.4152 23.2975 12.2755 21.779L15.2519 16.5683C11.0121 17.6089 4.74165 14.1325 2.33887 9.93927Z" fill="#FDBC42"/>
<path d="M19.9105 3.84183C18.461 3.84183 16.6938 5.15222 15.9808 6.75552C15.9808 6.75552 14.3298 10.4786 10.6946 10.4786C9.44674 10.4786 8.2376 10.0238 7.29199 9.19901C8.48563 10.6559 12.5549 13.8085 18.5696 10.7792L20.9568 6.61677C21.8327 5.08284 21.3521 3.84183 19.9105 3.84183Z" fill="#5152FB"/>
<path d="M7.29178 9.19193C6.50894 8.51361 5.86561 7.68113 5.41606 6.74844C4.70297 5.14514 2.93577 3.83475 1.4941 3.83475C0.0369265 3.84246 -0.435879 5.08347 0.439974 6.60969L2.33895 9.93192C4.74173 14.1252 11.0122 17.6093 15.2675 16.561L18.5771 10.7798C12.5469 13.8091 8.48542 10.6565 7.29178 9.19193Z" fill="#FA4769"/>
<path d="M38.0334 19.3705V8.50758C38.0334 7.71886 37.3174 7.09147 36.691 7.09147H35.5992V15.5523C35.4202 15.14 35.1338 14.4051 34.8832 13.9032L32.7354 9.60104C31.912 7.95189 30.8739 7.09147 29.263 7.09147H28.0459V17.7572C28.0459 18.8327 28.8155 19.3705 29.5315 19.3705H30.498V10.336C30.7128 10.6228 30.9813 11.0889 31.3214 11.77L33.5587 16.1259C35.0801 19.0836 36.1182 19.3705 37.0668 19.3705H38.0334Z" fill="black"/>
<path d="M47.9399 16.0722V13.8494C47.9399 10.5152 46.0068 9.51141 43.859 9.51141C41.3174 9.51141 40.3508 10.8021 40.3508 11.8776V12.6484H40.4403C40.7983 12.2002 41.7648 11.537 43.501 11.537C44.9329 11.537 45.5773 11.9493 45.5773 13.3116V13.4371H44.736C41.1921 13.4371 39.9392 14.7457 39.9392 16.4665C39.9392 18.2411 41.5143 19.5318 43.8053 19.5318H44.2886C46.4364 19.5318 47.9399 18.1157 47.9399 16.0722ZM45.5952 16.0901C45.5952 17.076 45.094 17.5779 44.0559 17.5779C42.9999 17.5779 42.3913 17.1298 42.3913 16.3769C42.3913 15.5882 42.9104 15.158 44.736 15.158H45.5952V16.0901Z" fill="black"/>
<path d="M49.932 10.085V15.8929C49.932 18.1515 51.1133 19.478 53.5475 19.478C54.9436 19.478 55.6596 18.8506 55.6596 17.8647V17.0043H55.5701C55.1942 17.2373 54.6035 17.3449 53.8339 17.3449C52.8674 17.3449 52.3125 16.8609 52.3125 15.6061V11.8238H54.2277C55.2121 11.8238 55.6596 11.1785 55.6596 10.6766V9.69067H52.3125V7.50375H51.7576C51.3818 7.50375 50.9522 7.79056 50.63 8.167C50.111 8.77647 49.932 9.13498 49.932 10.085Z" fill="black"/>
<path d="M59.9959 7.59338C59.9959 6.82258 59.3516 6.19519 58.5819 6.19519C57.8123 6.19519 57.1858 6.82258 57.1858 7.59338C57.1858 8.36418 57.8123 9.0095 58.5819 9.0095C59.3516 9.0095 59.9959 8.36418 59.9959 7.59338ZM61.7142 18.0081V17.4883H61.2668C60.2107 17.4883 59.7991 17.1835 59.7991 16.2156V11.6983C59.7991 10.4794 59.1547 9.90577 58.0808 9.90577H57.4006C57.4006 9.90577 57.4006 15.8929 57.4006 16.4486C57.4006 18.4025 58.4209 19.4601 60.2823 19.4601C61.3025 19.4601 61.7142 19.0478 61.7142 18.0081Z" fill="black"/>
<path d="M70.8785 10.8379C70.8785 10.0492 70.5742 9.69067 69.7509 9.69067H68.7307C68.3727 12.1106 67.5314 14.674 66.6186 16.4844C65.5984 14.4947 65.1151 12.6305 64.775 10.8379C64.6855 10.3181 64.1665 9.69067 63.3431 9.69067H62.0544C62.2692 12.3078 63.9159 16.5203 65.2225 18.51C65.7058 19.227 66.0816 19.478 66.7976 19.478H67.263C68.3369 18.0081 69.4108 15.6778 70.0552 13.9032C70.6458 12.2899 70.8785 11.1247 70.8785 10.8379Z" fill="black"/>
<path d="M80.4472 13.222C80.4472 10.9096 78.5857 9.47556 76.5811 9.47556C73.8247 9.47556 71.8558 11.5011 71.8558 14.7277C71.8558 17.6855 74.2005 19.5856 76.599 19.5856C79.248 19.5856 80.0892 18.6355 80.0892 17.3986V16.6458H79.9997C79.2301 17.3628 78.0488 17.56 77.0464 17.56C75.6324 17.56 74.5227 16.7892 74.3437 15.5702H75.9188C79.1048 15.5702 80.4472 14.9966 80.4472 13.222ZM78.1919 12.9352C78.1919 13.6164 77.6729 13.8673 75.3997 13.8673H74.3258L74.3437 13.5447C74.3974 12.4333 75.2029 11.4832 76.3663 11.4832C77.476 11.4832 78.1919 11.9672 78.1919 12.9352Z" fill="black"/>
<path d="M94.9446 7.86228V7.09148H86.7112C85.7089 7.09148 85.2256 7.84435 85.2256 8.43589V9.24254H88.7516V17.7213C88.7516 18.8148 89.3781 19.3705 90.2372 19.3705H91.2217V9.24254H93.4769C94.2823 9.24254 94.9446 8.45382 94.9446 7.86228Z" fill="black"/>
<path d="M104.372 13.222C104.372 10.9096 102.51 9.47557 100.505 9.47557C97.7491 9.47557 95.7802 11.5012 95.7802 14.7278C95.7802 17.6855 98.125 19.5856 100.523 19.5856C103.172 19.5856 104.014 18.6355 104.014 17.3987V16.6458H103.924C103.155 17.3628 101.973 17.56 100.971 17.56C99.5569 17.56 98.4471 16.7892 98.2682 15.5703H99.8432C103.029 15.5703 104.372 14.9966 104.372 13.222ZM102.116 12.9352C102.116 13.6164 101.597 13.8673 99.3242 13.8673H98.2503L98.2682 13.5447C98.3218 12.4333 99.1273 11.4832 100.291 11.4832C101.4 11.4832 102.116 11.9672 102.116 12.9352Z" fill="black"/>
<path d="M113.779 16.0722V13.8494C113.779 10.5153 111.846 9.51142 109.699 9.51142C107.157 9.51142 106.19 10.8021 106.19 11.8776V12.6484H106.28C106.638 12.2003 107.604 11.537 109.341 11.537C110.772 11.537 111.417 11.9493 111.417 13.3116V13.4371H110.576C107.032 13.4371 105.779 14.7457 105.779 16.4665C105.779 18.2412 107.354 19.5318 109.645 19.5318H110.128C112.276 19.5318 113.779 18.1157 113.779 16.0722ZM111.435 16.0901C111.435 17.076 110.934 17.5779 109.895 17.5779C108.839 17.5779 108.231 17.1298 108.231 16.3769C108.231 15.5882 108.75 15.158 110.576 15.158H111.435V16.0901Z" fill="black"/>
<path d="M129.715 19.3705V13.5626C129.715 10.82 127.925 9.47557 125.705 9.47557C124.542 9.47557 123.486 10.085 122.931 10.9813C122.233 10.0492 121.249 9.47557 119.996 9.47557C117.078 9.47557 115.7 11.2323 115.7 13.8673V17.6138C115.7 18.7251 116.452 19.3705 117.436 19.3705H118.08V13.6701C118.08 12.3437 118.779 11.6087 119.709 11.6087C120.765 11.6087 121.499 12.2899 121.499 13.8853V17.6138C121.499 18.761 122.197 19.3705 123.253 19.3705H123.898V13.6164C123.898 12.2899 124.56 11.6087 125.526 11.6087C126.582 11.6087 127.298 12.2899 127.298 13.8853V17.6138C127.298 18.761 127.817 19.3705 129.124 19.3705H129.715Z" fill="black"/>
<path d="M138.987 16.3231C138.987 14.7815 137.913 13.9032 135.909 13.5805C134.262 13.3116 133.976 13.1145 133.976 12.6305C133.976 12.0031 134.441 11.5549 135.909 11.5549C137.054 11.5549 138.164 11.9493 138.665 12.4512H138.755V11.537C138.755 10.6049 137.86 9.47557 135.676 9.47557C133.206 9.47557 131.577 11.0172 131.577 12.8276C131.577 14.2975 132.562 15.1042 134.602 15.391C136.267 15.624 136.607 15.8929 136.607 16.4486C136.607 17.1656 136.034 17.5062 134.853 17.5062C133.707 17.5062 132.472 17.076 131.953 16.592H131.864V17.6855C131.864 18.6714 133.188 19.5856 134.96 19.5856C137.555 19.5856 138.987 18.3666 138.987 16.3231Z" fill="black"/>
</svg>
